<?xml version="1.0" encoding="UTF-8" standalone="no"?>
<!DOCTYPE svg PUBLIC "-//W3C//DTD SVG 1.1//EN" "http://www.w3.org/Graphics/SVG/1.1/DTD/svg11.dtd">
<svg width="100%" height="100%" viewBox="0 0 3000 1605" version="1.1" xmlns="http://www.w3.org/2000/svg" xmlns:xlink="http://www.w3.org/1999/xlink" xml:space="preserve" xmlns:serif="http://www.serif.com/" style="fill-rule:evenodd;clip-rule:evenodd;stroke-linejoin:round;stroke-miterlimit:2;">
    <g id="Hexes" transform="matrix(0.97655,0,0,0.97655,-1.59162e-11,-671.325)">
        <g transform="matrix(0.195122,0,0,0.195122,292.683,1500.07)">
            <g transform="matrix(1,0,0,1,-1500,-1500)">
                <clipPath id="_clip1">
                    <rect x="0" y="0" width="3000" height="3000"/>
                </clipPath>
                <g clip-path="url(#_clip1)">
                    <g id="Hex" transform="matrix(30,0,0,30,-3000,-4.10888)">
                        <g id="Outer" transform="matrix(3.02638e-16,4.8932,-5.83375,3.59744e-16,534.218,-149.332)">
                            <path d="M40.765,57.29L49.614,61.576L49.614,70.147L40.765,74.432L31.915,70.147L31.915,61.576L40.765,57.29Z" style="fill:rgb(86,86,86);"/>
                        </g>
                        <g id="Inner" transform="matrix(2.01557e-16,3.25887,-3.88528,2.3959e-16,405.889,-82.7096)">
                            <path d="M40.765,57.29L49.614,61.576L49.614,70.147L40.765,74.432L31.915,70.147L31.915,61.576L40.765,57.29Z" style="fill:rgb(37,37,37);"/>
                        </g>
                    </g>
                </g>
            </g>
        </g>
        <g transform="matrix(0.195122,0,0,0.195122,775.61,1778.88)">
            <g transform="matrix(1,0,0,1,-1500,-1500)">
                <g id="Hex1" serif:id="Hex" transform="matrix(30,0,0,30,-3000,-4.10888)">
                    <g id="Outer1" serif:id="Outer" transform="matrix(3.02638e-16,4.8932,-5.83375,3.59744e-16,534.218,-149.332)">
                        <path d="M40.765,57.29L49.614,61.576L49.614,70.147L40.765,74.432L31.915,70.147L31.915,61.576L40.765,57.29Z" style="fill:rgb(86,86,86);"/>
                    </g>
                    <g id="Inner1" serif:id="Inner" transform="matrix(2.01557e-16,3.25887,-3.88528,2.3959e-16,405.889,-82.7096)">
                        <path d="M40.765,57.29L49.614,61.576L49.614,70.147L40.765,74.432L31.915,70.147L31.915,61.576L40.765,57.29Z" style="fill:rgb(37,37,37);"/>
                    </g>
                </g>
            </g>
        </g>
        <g transform="matrix(0.195122,0,0,0.195122,775.61,1221.15)">
            <g transform="matrix(1,0,0,1,-1500,-1500)">
                <g id="Hex2" serif:id="Hex" transform="matrix(30,0,0,30,-3000,-4.10888)">
                    <g id="Outer2" serif:id="Outer" transform="matrix(3.02638e-16,4.8932,-5.83375,3.59744e-16,534.218,-149.332)">
                        <path d="M40.765,57.29L49.614,61.576L49.614,70.147L40.765,74.432L31.915,70.147L31.915,61.576L40.765,57.29Z" style="fill:rgb(86,86,86);"/>
                    </g>
                    <g id="Inner2" serif:id="Inner" transform="matrix(2.01557e-16,3.25887,-3.88528,2.3959e-16,405.889,-82.7096)">
                        <path d="M40.765,57.29L49.614,61.576L49.614,70.147L40.765,74.432L31.915,70.147L31.915,61.576L40.765,57.29Z" style="fill:rgb(37,37,37);"/>
                    </g>
                </g>
            </g>
        </g>
        <g transform="matrix(0.195122,0,0,0.195122,1258.54,942.22)">
            <g transform="matrix(1,0,0,1,-1500,-1500)">
                <clipPath id="_clip2">
                    <rect x="0" y="0" width="3000" height="3000"/>
                </clipPath>
                <g clip-path="url(#_clip2)">
                    <g id="Hex3" serif:id="Hex" transform="matrix(30,0,0,30,-3000,-4.10888)">
                        <g id="Outer3" serif:id="Outer" transform="matrix(3.02638e-16,4.8932,-5.83375,3.59744e-16,534.218,-149.332)">
                            <path d="M40.765,57.29L49.614,61.576L49.614,70.147L40.765,74.432L31.915,70.147L31.915,61.576L40.765,57.29Z" style="fill:rgb(86,86,86);"/>
                        </g>
                        <g id="Inner3" serif:id="Inner" transform="matrix(2.01557e-16,3.25887,-3.88528,2.3959e-16,405.889,-82.7096)">
                            <path d="M40.765,57.29L49.614,61.576L49.614,70.147L40.765,74.432L31.915,70.147L31.915,61.576L40.765,57.29Z" style="fill:rgb(37,37,37);"/>
                        </g>
                    </g>
                </g>
            </g>
        </g>
        <g transform="matrix(0.195122,0,0,0.195122,1258.54,2057.75)">
            <g transform="matrix(1,0,0,1,-1500,-1500)">
                <clipPath id="_clip3">
                    <rect x="0" y="0" width="3000" height="3000"/>
                </clipPath>
                <g clip-path="url(#_clip3)">
                    <g id="Hex4" serif:id="Hex" transform="matrix(30,0,0,30,-3000,-4.10888)">
                        <g id="Outer4" serif:id="Outer" transform="matrix(3.02638e-16,4.8932,-5.83375,3.59744e-16,534.218,-149.332)">
                            <path d="M40.765,57.29L49.614,61.576L49.614,70.147L40.765,74.432L31.915,70.147L31.915,61.576L40.765,57.29Z" style="fill:rgb(86,86,86);"/>
                        </g>
                        <g id="Inner4" serif:id="Inner" transform="matrix(2.01557e-16,3.25887,-3.88528,2.3959e-16,405.889,-82.7096)">
                            <path d="M40.765,57.29L49.614,61.576L49.614,70.147L40.765,74.432L31.915,70.147L31.915,61.576L40.765,57.29Z" style="fill:rgb(37,37,37);"/>
                        </g>
                    </g>
                </g>
            </g>
        </g>
        <g transform="matrix(0.195122,0,0,0.195122,1258.54,1500.01)">
            <g transform="matrix(1,0,0,1,-1500,-1500)">
                <clipPath id="_clip4">
                    <rect x="0" y="0" width="3000" height="3000"/>
                </clipPath>
                <g clip-path="url(#_clip4)">
                    <g id="Hex5" serif:id="Hex" transform="matrix(30,0,0,30,-3000,-4.10888)">
                        <g id="Outer5" serif:id="Outer" transform="matrix(3.02638e-16,4.8932,-5.83375,3.59744e-16,534.218,-149.332)">
                            <path d="M40.765,57.29L49.614,61.576L49.614,70.147L40.765,74.432L31.915,70.147L31.915,61.576L40.765,57.29Z" style="fill:rgb(86,86,86);"/>
                        </g>
                        <g id="Inner5" serif:id="Inner" transform="matrix(2.01557e-16,3.25887,-3.88528,2.3959e-16,405.889,-82.7096)">
                            <path d="M40.765,57.29L49.614,61.576L49.614,70.147L40.765,74.432L31.915,70.147L31.915,61.576L40.765,57.29Z" style="fill:rgb(37,37,37);"/>
                        </g>
                    </g>
                </g>
            </g>
        </g>
        <g transform="matrix(0.195122,0,0,0.195122,1741.46,1778.91)">
            <g transform="matrix(1,0,0,1,-1500,-1500)">
                <clipPath id="_clip5">
                    <rect x="0" y="0" width="3000" height="3000"/>
                </clipPath>
                <g clip-path="url(#_clip5)">
                    <g id="Hex6" serif:id="Hex" transform="matrix(30,0,0,30,-3000,-4.10888)">
                        <g id="Outer6" serif:id="Outer" transform="matrix(3.02638e-16,4.8932,-5.83375,3.59744e-16,534.218,-149.332)">
                            <path d="M40.765,57.29L49.614,61.576L49.614,70.147L40.765,74.432L31.915,70.147L31.915,61.576L40.765,57.29Z" style="fill:rgb(86,86,86);"/>
                        </g>
                        <g id="Inner6" serif:id="Inner" transform="matrix(2.01557e-16,3.25887,-3.88528,2.3959e-16,405.889,-82.7096)">
                            <path d="M40.765,57.29L49.614,61.576L49.614,70.147L40.765,74.432L31.915,70.147L31.915,61.576L40.765,57.29Z" style="fill:rgb(37,37,37);"/>
                        </g>
                    </g>
                </g>
            </g>
        </g>
        <g transform="matrix(0.195122,0,0,0.195122,1741.46,1221.18)">
            <g transform="matrix(1,0,0,1,-1500,-1500)">
                <clipPath id="_clip6">
                    <rect x="0" y="0" width="3000" height="3000"/>
                </clipPath>
                <g clip-path="url(#_clip6)">
                    <g id="Hex7" serif:id="Hex" transform="matrix(30,0,0,30,-3000,-4.10888)">
                        <g id="Outer7" serif:id="Outer" transform="matrix(3.02638e-16,4.8932,-5.83375,3.59744e-16,534.218,-149.332)">
                            <path d="M40.765,57.29L49.614,61.576L49.614,70.147L40.765,74.432L31.915,70.147L31.915,61.576L40.765,57.29Z" style="fill:rgb(86,86,86);"/>
                        </g>
                        <g id="Inner7" serif:id="Inner" transform="matrix(2.01557e-16,3.25887,-3.88528,2.3959e-16,405.889,-82.7096)">
                            <path d="M40.765,57.29L49.614,61.576L49.614,70.147L40.765,74.432L31.915,70.147L31.915,61.576L40.765,57.29Z" style="fill:rgb(37,37,37);"/>
                        </g>
                    </g>
                </g>
            </g>
        </g>
        <g transform="matrix(0.195122,0,0,0.195122,2224.39,1499.99)">
            <g transform="matrix(1,0,0,1,-1500,-1500)">
                <clipPath id="_clip7">
                    <rect x="0" y="0" width="3000" height="3000"/>
                </clipPath>
                <g clip-path="url(#_clip7)">
                    <g id="Hex8" serif:id="Hex" transform="matrix(30,0,0,30,-3000,-4.10888)">
                        <g id="Outer8" serif:id="Outer" transform="matrix(3.02638e-16,4.8932,-5.83375,3.59744e-16,534.218,-149.332)">
                            <path d="M40.765,57.29L49.614,61.576L49.614,70.147L40.765,74.432L31.915,70.147L31.915,61.576L40.765,57.29Z" style="fill:rgb(86,86,86);"/>
                        </g>
                        <g id="Inner8" serif:id="Inner" transform="matrix(2.01557e-16,3.25887,-3.88528,2.3959e-16,405.889,-82.7096)">
                            <path d="M40.765,57.29L49.614,61.576L49.614,70.147L40.765,74.432L31.915,70.147L31.915,61.576L40.765,57.29Z" style="fill:rgb(37,37,37);"/>
                        </g>
                    </g>
                </g>
            </g>
        </g>
        <g transform="matrix(0.195122,0,0,0.195122,2707.32,1778.88)">
            <g transform="matrix(1,0,0,1,-1500,-1500)">
                <clipPath id="_clip8">
                    <rect x="0" y="0" width="3000" height="3000"/>
                </clipPath>
                <g clip-path="url(#_clip8)">
                    <g id="Hex9" serif:id="Hex" transform="matrix(30,0,0,30,-3000,-4.10888)">
                        <g id="Outer9" serif:id="Outer" transform="matrix(3.02638e-16,4.8932,-5.83375,3.59744e-16,534.218,-149.332)">
                            <path d="M40.765,57.29L49.614,61.576L49.614,70.147L40.765,74.432L31.915,70.147L31.915,61.576L40.765,57.29Z" style="fill:rgb(86,86,86);"/>
                        </g>
                        <g id="Inner9" serif:id="Inner" transform="matrix(2.01557e-16,3.25887,-3.88528,2.3959e-16,405.889,-82.7096)">
                            <path d="M40.765,57.29L49.614,61.576L49.614,70.147L40.765,74.432L31.915,70.147L31.915,61.576L40.765,57.29Z" style="fill:rgb(37,37,37);"/>
                        </g>
                    </g>
                </g>
            </g>
        </g>
        <g transform="matrix(0.195122,0,0,0.195122,2707.32,1221.15)">
            <g transform="matrix(1,0,0,1,-1500,-1500)">
                <clipPath id="_clip9">
                    <rect x="0" y="0" width="3000" height="3000"/>
                </clipPath>
                <g clip-path="url(#_clip9)">
                    <g id="Hex10" serif:id="Hex" transform="matrix(30,0,0,30,-3000,-4.10888)">
                        <g id="Outer10" serif:id="Outer" transform="matrix(3.02638e-16,4.8932,-5.83375,3.59744e-16,534.218,-149.332)">
                            <path d="M40.765,57.29L49.614,61.576L49.614,70.147L40.765,74.432L31.915,70.147L31.915,61.576L40.765,57.29Z" style="fill:rgb(86,86,86);"/>
                        </g>
                        <g id="Inner10" serif:id="Inner" transform="matrix(2.01557e-16,3.25887,-3.88528,2.3959e-16,405.889,-82.7096)">
                            <path d="M40.765,57.29L49.614,61.576L49.614,70.147L40.765,74.432L31.915,70.147L31.915,61.576L40.765,57.29Z" style="fill:rgb(37,37,37);"/>
                        </g>
                    </g>
                </g>
            </g>
        </g>
        <g transform="matrix(0.195122,0,0,0.195122,2224.39,942.249)">
            <g transform="matrix(1,0,0,1,-1500,-1500)">
                <clipPath id="_clip10">
                    <rect x="0" y="0" width="3000" height="3000"/>
                </clipPath>
                <g clip-path="url(#_clip10)">
                    <g id="Hex11" serif:id="Hex" transform="matrix(30,0,0,30,-3000,-4.10888)">
                        <g id="Outer11" serif:id="Outer" transform="matrix(3.02638e-16,4.8932,-5.83375,3.59744e-16,534.218,-149.332)">
                            <path d="M40.765,57.29L49.614,61.576L49.614,70.147L40.765,74.432L31.915,70.147L31.915,61.576L40.765,57.29Z" style="fill:rgb(86,86,86);"/>
                        </g>
                        <g id="Inner11" serif:id="Inner" transform="matrix(2.01557e-16,3.25887,-3.88528,2.3959e-16,405.889,-82.7096)">
                            <path d="M40.765,57.29L49.614,61.576L49.614,70.147L40.765,74.432L31.915,70.147L31.915,61.576L40.765,57.29Z" style="fill:rgb(37,37,37);"/>
                        </g>
                    </g>
                </g>
            </g>
        </g>
        <g transform="matrix(0.195122,0,0,0.195122,2224.39,2057.78)">
            <g transform="matrix(1,0,0,1,-1500,-1500)">
                <clipPath id="_clip11">
                    <rect x="0" y="0" width="3000" height="3000"/>
                </clipPath>
                <g clip-path="url(#_clip11)">
                    <g id="Hex12" serif:id="Hex" transform="matrix(30,0,0,30,-3000,-4.10888)">
                        <g id="Outer12" serif:id="Outer" transform="matrix(3.02638e-16,4.8932,-5.83375,3.59744e-16,534.218,-149.332)">
                            <path d="M40.765,57.29L49.614,61.576L49.614,70.147L40.765,74.432L31.915,70.147L31.915,61.576L40.765,57.29Z" style="fill:rgb(86,86,86);"/>
                        </g>
                        <g id="Inner12" serif:id="Inner" transform="matrix(2.01557e-16,3.25887,-3.88528,2.3959e-16,405.889,-82.7096)">
                            <path d="M40.765,57.29L49.614,61.576L49.614,70.147L40.765,74.432L31.915,70.147L31.915,61.576L40.765,57.29Z" style="fill:rgb(37,37,37);"/>
                        </g>
                    </g>
                </g>
            </g>
        </g>
    </g>
    <g id="Lettering" transform="matrix(0.97655,0,0,0.97655,-1.59162e-11,-671.325)">
        <g transform="matrix(38.6708,0,0,39.0582,-7158.1,-13064.9)">
            <g transform="matrix(16.6667,0,0,16.6667,190.139,377.239)">
                <path d="M0.274,-0.7C0.374,-0.7 0.451,-0.682 0.504,-0.645C0.557,-0.608 0.583,-0.552 0.583,-0.477C0.583,-0.383 0.537,-0.319 0.444,-0.286C0.457,-0.271 0.471,-0.252 0.487,-0.23C0.503,-0.208 0.519,-0.184 0.536,-0.159C0.553,-0.133 0.569,-0.107 0.584,-0.08C0.599,-0.053 0.613,-0.026 0.625,-0L0.484,-0C0.471,-0.024 0.458,-0.048 0.443,-0.073C0.428,-0.097 0.413,-0.121 0.399,-0.144C0.384,-0.167 0.369,-0.188 0.354,-0.209C0.339,-0.229 0.326,-0.247 0.313,-0.263C0.304,-0.262 0.296,-0.262 0.289,-0.262L0.209,-0.262L0.209,-0L0.083,-0L0.083,-0.683C0.114,-0.69 0.146,-0.694 0.181,-0.697C0.216,-0.699 0.247,-0.7 0.274,-0.7ZM0.283,-0.591C0.256,-0.591 0.232,-0.59 0.209,-0.588L0.209,-0.364L0.264,-0.364C0.295,-0.364 0.322,-0.366 0.345,-0.369C0.368,-0.372 0.388,-0.378 0.404,-0.387C0.419,-0.396 0.431,-0.407 0.439,-0.422C0.447,-0.437 0.451,-0.455 0.451,-0.478C0.451,-0.499 0.447,-0.517 0.439,-0.532C0.431,-0.547 0.42,-0.558 0.405,-0.567C0.39,-0.576 0.372,-0.582 0.351,-0.586C0.33,-0.589 0.308,-0.591 0.283,-0.591Z" style="fill:rgb(90,143,226);fill-rule:nonzero;"/>
            </g>
            <g transform="matrix(16.6667,0,0,16.6667,200.139,377.239)">
                <path d="M0.55,-0.262C0.55,-0.221 0.544,-0.183 0.532,-0.149C0.52,-0.115 0.503,-0.086 0.481,-0.062C0.459,-0.038 0.433,-0.019 0.402,-0.006C0.371,0.007 0.336,0.014 0.299,0.014C0.262,0.014 0.228,0.007 0.197,-0.006C0.166,-0.019 0.14,-0.038 0.118,-0.062C0.096,-0.086 0.079,-0.115 0.067,-0.149C0.054,-0.183 0.048,-0.221 0.048,-0.262C0.048,-0.303 0.054,-0.341 0.067,-0.375C0.079,-0.408 0.096,-0.437 0.119,-0.461C0.141,-0.485 0.167,-0.503 0.198,-0.517C0.229,-0.53 0.262,-0.536 0.299,-0.536C0.336,-0.536 0.37,-0.53 0.401,-0.517C0.432,-0.503 0.458,-0.485 0.48,-0.461C0.502,-0.437 0.519,-0.408 0.532,-0.375C0.544,-0.341 0.55,-0.303 0.55,-0.262ZM0.426,-0.262C0.426,-0.314 0.415,-0.355 0.393,-0.386C0.37,-0.416 0.339,-0.431 0.299,-0.431C0.259,-0.431 0.228,-0.416 0.206,-0.386C0.183,-0.355 0.172,-0.314 0.172,-0.262C0.172,-0.209 0.183,-0.168 0.206,-0.137C0.228,-0.106 0.259,-0.091 0.299,-0.091C0.339,-0.091 0.37,-0.106 0.393,-0.137C0.415,-0.168 0.426,-0.209 0.426,-0.262Z" style="fill:rgb(90,143,226);fill-rule:nonzero;"/>
            </g>
            <g transform="matrix(16.6667,0,0,16.6667,209.439,377.239)">
                <path d="M0.424,-0.263C0.424,-0.314 0.414,-0.355 0.394,-0.385C0.373,-0.415 0.341,-0.43 0.297,-0.43C0.277,-0.43 0.258,-0.427 0.241,-0.421C0.223,-0.415 0.209,-0.408 0.198,-0.401L0.198,-0.1C0.207,-0.098 0.218,-0.096 0.232,-0.095C0.245,-0.093 0.262,-0.092 0.281,-0.092C0.326,-0.092 0.361,-0.107 0.386,-0.138C0.411,-0.168 0.424,-0.21 0.424,-0.263ZM0.548,-0.261C0.548,-0.219 0.542,-0.181 0.53,-0.148C0.517,-0.114 0.5,-0.085 0.477,-0.061C0.454,-0.037 0.426,-0.019 0.393,-0.006C0.36,0.007 0.323,0.013 0.282,0.013C0.242,0.013 0.204,0.01 0.168,0.004C0.131,-0.002 0.101,-0.009 0.077,-0.016L0.077,-0.756L0.198,-0.776L0.198,-0.505C0.212,-0.512 0.229,-0.519 0.25,-0.525C0.27,-0.531 0.292,-0.534 0.317,-0.534C0.354,-0.534 0.387,-0.528 0.416,-0.515C0.445,-0.501 0.469,-0.483 0.488,-0.459C0.507,-0.435 0.522,-0.406 0.533,-0.373C0.543,-0.339 0.548,-0.302 0.548,-0.261Z" style="fill:rgb(90,143,226);fill-rule:nonzero;"/>
            </g>
            <g transform="matrix(16.6667,0,0,16.6667,218.706,377.239)">
                <path d="M0.55,-0.262C0.55,-0.221 0.544,-0.183 0.532,-0.149C0.52,-0.115 0.503,-0.086 0.481,-0.062C0.459,-0.038 0.433,-0.019 0.402,-0.006C0.371,0.007 0.336,0.014 0.299,0.014C0.262,0.014 0.228,0.007 0.197,-0.006C0.166,-0.019 0.14,-0.038 0.118,-0.062C0.096,-0.086 0.079,-0.115 0.067,-0.149C0.054,-0.183 0.048,-0.221 0.048,-0.262C0.048,-0.303 0.054,-0.341 0.067,-0.375C0.079,-0.408 0.096,-0.437 0.119,-0.461C0.141,-0.485 0.167,-0.503 0.198,-0.517C0.229,-0.53 0.262,-0.536 0.299,-0.536C0.336,-0.536 0.37,-0.53 0.401,-0.517C0.432,-0.503 0.458,-0.485 0.48,-0.461C0.502,-0.437 0.519,-0.408 0.532,-0.375C0.544,-0.341 0.55,-0.303 0.55,-0.262ZM0.426,-0.262C0.426,-0.314 0.415,-0.355 0.393,-0.386C0.37,-0.416 0.339,-0.431 0.299,-0.431C0.259,-0.431 0.228,-0.416 0.206,-0.386C0.183,-0.355 0.172,-0.314 0.172,-0.262C0.172,-0.209 0.183,-0.168 0.206,-0.137C0.228,-0.106 0.259,-0.091 0.299,-0.091C0.339,-0.091 0.37,-0.106 0.393,-0.137C0.415,-0.168 0.426,-0.209 0.426,-0.262Z" style="fill:rgb(90,143,226);fill-rule:nonzero;"/>
            </g>
            <g transform="matrix(16.6667,0,0,16.6667,228.006,377.239)">
                <path d="M0.071,-0.661L0.192,-0.681L0.192,-0.523L0.378,-0.523L0.378,-0.422L0.192,-0.422L0.192,-0.209C0.192,-0.167 0.199,-0.137 0.212,-0.119C0.225,-0.101 0.248,-0.092 0.28,-0.092C0.302,-0.092 0.322,-0.094 0.339,-0.099C0.356,-0.104 0.369,-0.108 0.379,-0.112L0.399,-0.016C0.385,-0.01 0.367,-0.004 0.344,0.003C0.321,0.009 0.295,0.012 0.264,0.012C0.227,0.012 0.196,0.007 0.171,-0.003C0.146,-0.013 0.126,-0.028 0.111,-0.047C0.096,-0.066 0.086,-0.089 0.08,-0.116C0.074,-0.142 0.071,-0.173 0.071,-0.208L0.071,-0.661Z" style="fill:rgb(90,143,226);fill-rule:nonzero;"/>
            </g>
        </g>
        <g transform="matrix(195.784,0,0,196.467,-77531,-76519.8)">
            <g transform="matrix(12.0004,0,0,12.0004,402.717,401.099)">
                <path d="M0.35,-0.316L0.319,-0.388L0.301,-0.434C0.294,-0.45 0.286,-0.467 0.277,-0.486C0.264,-0.513 0.257,-0.528 0.255,-0.533C0.237,-0.575 0.219,-0.596 0.202,-0.596C0.17,-0.596 0.143,-0.565 0.121,-0.503C0.11,-0.506 0.105,-0.513 0.105,-0.524C0.105,-0.555 0.12,-0.588 0.15,-0.624C0.18,-0.659 0.208,-0.677 0.235,-0.677C0.256,-0.677 0.275,-0.665 0.292,-0.64C0.309,-0.616 0.333,-0.565 0.366,-0.488L0.404,-0.395L0.452,-0.479C0.527,-0.611 0.602,-0.676 0.677,-0.676C0.702,-0.676 0.726,-0.671 0.748,-0.661L0.678,-0.59C0.664,-0.598 0.652,-0.602 0.642,-0.602C0.612,-0.602 0.583,-0.586 0.554,-0.553C0.524,-0.521 0.486,-0.462 0.438,-0.376L0.423,-0.349L0.462,-0.255L0.484,-0.205L0.505,-0.156C0.535,-0.086 0.562,-0.052 0.587,-0.052C0.623,-0.052 0.65,-0.08 0.667,-0.136C0.679,-0.131 0.685,-0.124 0.685,-0.115C0.685,-0.1 0.675,-0.078 0.655,-0.048C0.626,-0.003 0.593,0.02 0.556,0.02C0.529,0.02 0.505,0.005 0.484,-0.024C0.463,-0.053 0.434,-0.113 0.396,-0.204L0.369,-0.269L0.358,-0.248C0.264,-0.069 0.17,0.02 0.074,0.02C0.053,0.02 0.031,0.014 0.007,0.003L0.079,-0.066C0.091,-0.06 0.105,-0.056 0.12,-0.056C0.162,-0.056 0.207,-0.089 0.252,-0.154C0.291,-0.208 0.32,-0.256 0.34,-0.297L0.35,-0.316Z" style="fill:rgb(214,82,75);fill-rule:nonzero;"/>
            </g>
        </g>
        <g transform="matrix(2.20423,0,0,2.22631,-38.2751,899.876)">
            <g transform="matrix(179.669,0,0,179.669,399.316,490.363)">
                <path d="M0.033,-0.166L0.033,-0.528C0.033,-0.649 0.089,-0.71 0.201,-0.71C0.254,-0.71 0.295,-0.695 0.323,-0.665C0.351,-0.634 0.365,-0.591 0.365,-0.534L0.365,-0.521L0.261,-0.521L0.261,-0.541C0.261,-0.587 0.242,-0.61 0.204,-0.61C0.183,-0.61 0.167,-0.604 0.158,-0.591C0.148,-0.578 0.143,-0.555 0.143,-0.524L0.143,-0.39C0.165,-0.431 0.199,-0.451 0.245,-0.451C0.326,-0.451 0.367,-0.398 0.367,-0.291L0.367,-0.166C0.367,-0.11 0.353,-0.067 0.324,-0.036C0.295,-0.005 0.254,0.01 0.2,0.01C0.146,0.01 0.105,-0.005 0.076,-0.036C0.047,-0.067 0.033,-0.11 0.033,-0.166ZM0.257,-0.158L0.257,-0.282C0.257,-0.328 0.238,-0.351 0.2,-0.351C0.162,-0.351 0.143,-0.328 0.143,-0.282L0.143,-0.158C0.143,-0.113 0.162,-0.09 0.2,-0.09C0.238,-0.09 0.257,-0.113 0.257,-0.158Z" style="fill:rgb(90,143,226);fill-rule:nonzero;"/>
            </g>
            <g transform="matrix(179.669,0,0,179.669,502.267,490.363)">
                <path d="M0.192,0.01C0.139,0.01 0.098,-0.005 0.07,-0.036C0.042,-0.066 0.028,-0.109 0.028,-0.166L0.028,-0.179L0.132,-0.179L0.132,-0.159C0.132,-0.113 0.151,-0.09 0.189,-0.09C0.21,-0.09 0.226,-0.096 0.236,-0.11C0.245,-0.123 0.25,-0.145 0.25,-0.176L0.25,-0.31C0.228,-0.269 0.194,-0.249 0.148,-0.249C0.067,-0.249 0.026,-0.302 0.026,-0.409L0.026,-0.534C0.026,-0.59 0.04,-0.633 0.069,-0.664C0.098,-0.695 0.139,-0.71 0.193,-0.71C0.247,-0.71 0.288,-0.695 0.317,-0.664C0.346,-0.633 0.36,-0.59 0.36,-0.534L0.36,-0.172C0.36,-0.051 0.304,0.01 0.192,0.01ZM0.25,-0.418L0.25,-0.542C0.25,-0.587 0.231,-0.61 0.193,-0.61C0.155,-0.61 0.136,-0.587 0.136,-0.542L0.136,-0.418C0.136,-0.372 0.155,-0.349 0.193,-0.349C0.231,-0.349 0.25,-0.372 0.25,-0.418Z" style="fill:rgb(90,143,226);fill-rule:nonzero;"/>
            </g>
            <g transform="matrix(179.669,0,0,179.669,605.217,490.363)">
                <path d="M0.033,-0.166L0.033,-0.528C0.033,-0.649 0.089,-0.71 0.201,-0.71C0.254,-0.71 0.295,-0.695 0.323,-0.665C0.351,-0.634 0.365,-0.591 0.365,-0.534L0.365,-0.521L0.261,-0.521L0.261,-0.541C0.261,-0.587 0.242,-0.61 0.204,-0.61C0.183,-0.61 0.167,-0.604 0.158,-0.591C0.148,-0.578 0.143,-0.555 0.143,-0.524L0.143,-0.39C0.165,-0.431 0.199,-0.451 0.245,-0.451C0.326,-0.451 0.367,-0.398 0.367,-0.291L0.367,-0.166C0.367,-0.11 0.353,-0.067 0.324,-0.036C0.295,-0.005 0.254,0.01 0.2,0.01C0.146,0.01 0.105,-0.005 0.076,-0.036C0.047,-0.067 0.033,-0.11 0.033,-0.166ZM0.257,-0.158L0.257,-0.282C0.257,-0.328 0.238,-0.351 0.2,-0.351C0.162,-0.351 0.143,-0.328 0.143,-0.282L0.143,-0.158C0.143,-0.113 0.162,-0.09 0.2,-0.09C0.238,-0.09 0.257,-0.113 0.257,-0.158Z" style="fill:rgb(90,143,226);fill-rule:nonzero;"/>
            </g>
            <g transform="matrix(179.669,0,0,179.669,708.168,490.363)">
                <path d="M0.342,-0L0.024,-0L0.024,-0.076C0.024,-0.128 0.032,-0.172 0.048,-0.209C0.064,-0.246 0.093,-0.286 0.134,-0.329C0.177,-0.375 0.205,-0.411 0.219,-0.438C0.234,-0.467 0.242,-0.498 0.242,-0.53C0.242,-0.559 0.237,-0.58 0.228,-0.592C0.219,-0.604 0.204,-0.61 0.185,-0.61C0.147,-0.61 0.128,-0.587 0.128,-0.541L0.128,-0.466L0.024,-0.466L0.024,-0.534C0.024,-0.591 0.038,-0.634 0.066,-0.665C0.094,-0.695 0.135,-0.71 0.188,-0.71C0.241,-0.71 0.282,-0.695 0.31,-0.665C0.338,-0.634 0.352,-0.591 0.352,-0.534C0.352,-0.491 0.342,-0.449 0.321,-0.41C0.3,-0.369 0.265,-0.323 0.216,-0.271C0.184,-0.237 0.162,-0.209 0.151,-0.187C0.139,-0.165 0.133,-0.141 0.133,-0.115L0.133,-0.1L0.342,-0.1L0.342,-0Z" style="fill:rgb(90,143,226);fill-rule:nonzero;"/>
            </g>
        </g>
    </g>
</svg>
